<svg xmlns="http://www.w3.org/2000/svg" viewBox="0 0 500 161.6"><defs><style>.cls-1{fill:#fff;}</style></defs><title>Ресурс 1</title><g id="Слой_2" data-name="Слой 2"><g id="Слой_1-2" data-name="Слой 1"><path class="cls-1" d="M311.93-44.41h.81a2.91,2.91,0,0,1,2.49,2.65,20.14,20.14,0,0,1-1.28,6.5,23.93,23.93,0,0,1-6.66,9.56,20.41,20.41,0,0,1-13.1,5.09c-9.11.2-18.08-1.79-27.18-2-4.37-.15-8.58,1.29-12.54,3-.91.35-1.76.86-2.69,1.14A3.09,3.09,0,0,1,248.67-20a3.43,3.43,0,0,1,.32-3.49c1.33-1.88,2.6-3.79,4-5.6,3.33-4.22,7.35-8.08,12.3-10.32,4.39-2,9.37-1.89,14-1.09s8.93,2.2,13.53,2.18a39.08,39.08,0,0,0,16.86-5,7.6,7.6,0,0,1,2.2-1.11M290.2-32.46a23,23,0,0,0-8.86,1.84,16.11,16.11,0,0,0-4.09,2.84c6.26.57,12.53,1.71,18.83,1.1a15.54,15.54,0,0,0,11.51-9,40.27,40.27,0,0,1-17.39,3.21" transform="translate(-231 44.41)"/><path class="cls-1" d="M231-8.07a3.07,3.07,0,0,1,3.21-2.32q16.66,0,33.33,0a2.51,2.51,0,0,1,2.55,2.56c0,11.19,0,22.39,0,33.57a6.26,6.26,0,0,0,.39,2.36,20.29,20.29,0,0,0,1.93,2.11c8.48,9.19,17,18.34,25.49,27.53,1.34-.09,2.68-.11,4-.11.21-10.09.19-20.2.21-30.3.06-2.71,4.07-3.51,5.67-1.62,9.71,10.58,19.24,21.3,29,31.84,1.05,1.25,2.83.51,4.23.6.19-10.26,0-20.53.2-30.8a2.38,2.38,0,0,1,1.22-2.13,3.69,3.69,0,0,1,4.46.59c6.7,6.91,13.2,14,19.82,21,2.28,2.42,4.67,4.75,6.81,7.31a15.09,15.09,0,0,1,3,9.2V96.14a15.48,15.48,0,0,1-1.91,7.57,13.75,13.75,0,0,1-9,6.68,28.9,28.9,0,0,1-6.64.4c-37.06,0-74.12-.1-111.19,0a33.87,33.87,0,0,1-5.6-.24,13.33,13.33,0,0,1-7.08-3.33c-2.71-2.53-3.92-6.27-4.12-9.9Zm7.47,5q0,49.85,0,99.7c0,2.06.47,4.48,2.36,5.65,2.24,1.41,5,1.05,7.51,1.1,37.77,0,75.55-.11,113.33,0a7.51,7.51,0,0,0,4.64-1.31A6.76,6.76,0,0,0,369,96.4V63.06a7.81,7.81,0,0,0-1.43-4.6q-5.13-5.3-10.11-10.73c-2.9-3.26-6-6.32-9-9.48v20a7.28,7.28,0,0,1-1.12,3.84,7.43,7.43,0,0,1-6.5,3.45c-3.23-.14-6.65-1-8.93-3.46-3.1-3.31-6.18-6.63-9.28-9.92-4.31-4.62-8.8-9.06-13.06-13.71-.33,5.52-.17,11.05-.21,16.58a17.83,17.83,0,0,1-.28,4.56,7.5,7.5,0,0,1-4.76,5,13.84,13.84,0,0,1-3.74.46,19.39,19.39,0,0,1-4,0,7.13,7.13,0,0,1-4.06-2.2c-8.31-9.12-16.78-18.09-25.09-27.21a19,19,0,0,1-2.77-3.11,11.1,11.1,0,0,1-2-6.59V-3H238.47" transform="translate(-231 44.41)"/><path class="cls-1" d="M614.33,21.79a26,26,0,0,1,11.48-.44,7.65,7.65,0,0,1,5.27,3.21,12.22,12.22,0,0,1-1.41,15.37,8.45,8.45,0,0,1,3.57,5,19.64,19.64,0,0,1,.44,5.62,12.5,12.5,0,0,1-1.23,6,8.09,8.09,0,0,1-6,4.06,41.61,41.61,0,0,1-10.22,0c-.77-.16-1.89-.23-2.13-1.15a17.66,17.66,0,0,1,.18-6.64c2.91.45,6,1.28,8.91.19,2.43-1.81,2.71-5.58,1.09-8a3.52,3.52,0,0,0-2.11-1.64,33.45,33.45,0,0,0-5.48-.4,38.46,38.46,0,0,1-.19-6.7c2.3-.35,4.73-.06,7-.86,1.94-1.46,1.66-4.78-.24-6.15a4.19,4.19,0,0,0-2.4-.59c-2.19-.11-4.36.14-6.54.24,0-2.35,0-4.69,0-7" transform="translate(-231 44.41)"/><path class="cls-1" d="M392.08,23c-.14-.39-.3-1.1.26-1.21a25.79,25.79,0,0,1,7.34.07c2,4.68,3.25,9.66,4.88,14.49a4.26,4.26,0,0,0,1.37,1.75c1.62-5.43,3-10.91,4.64-16.34a63.77,63.77,0,0,1,8.06-.12C415.77,32,412.31,42.2,409.27,52.5A11.32,11.32,0,0,1,402,60.2a15.2,15.2,0,0,1-8.76,0c0-2.2,0-4.4,0-6.59,2.11,0,4.23.12,6.33,0a1.78,1.78,0,0,0,1.53-1.76c.25-1.86-.54-3.61-1.14-5.32Q396,34.8,392.08,23" transform="translate(-231 44.41)"/><path class="cls-1" d="M432.54,21.79a30.49,30.49,0,0,1,7.27.14c0,2.86,0,5.72,0,8.59,2-1.21,4.53-2,6.82-1.15,2,.65,3.15,2.55,3.86,4.38.84,2.85.58,5.87.42,8.79,0,2.39,0,4.79.11,7.18a15.63,15.63,0,0,1-1,7.3A5.8,5.8,0,0,1,446,60.66c-2.21.4-4.34-.57-6.36-1.33v8.61a50.26,50.26,0,0,1-7,.11c0-3.14,0-6.28-.22-9.41-1.7,1-3.42,2.61-5.56,2.15-3.17-.36-5.28-3.49-5.47-6.49-.24-5.51-.23-11-.24-16.56a11.2,11.2,0,0,1,1.38-5.9A6.08,6.08,0,0,1,427.54,29c1.69.2,3.15,1.19,4.8,1.59.21-2.91.19-5.83.2-8.75m-3,14.24c-1.35.29-1.31,2-1.38,3,.15,4.44,0,8.88.17,13.33-.1,2,3.27,2.33,3.79.52.31-5.32.21-10.66,0-16a2.17,2.17,0,0,0-2.6-.91m10.69.14c-.81,5.29-.2,10.64-.41,16-.31,2.2,3.62,2.7,3.83.5q.31-7.69,0-15.4A1.21,1.21,0,0,0,442.44,36a6.69,6.69,0,0,0-2.24.16" transform="translate(-231 44.41)"/><path class="cls-1" d="M577.23,22.39a10.17,10.17,0,0,1,3.26-.12c.18.68.39,1.36.6,2a38.6,38.6,0,0,0,4.81,0,11.11,11.11,0,0,1,.81-2.07c1.14-.06,2.29,0,3.43,0a11.53,11.53,0,0,1-.16,3.52A2.36,2.36,0,0,1,587.83,27a83,83,0,0,1-9.06-.12c-1.22-.12-1.86-1.38-2-2.46-.09-.69-.34-1.71.49-2.05" transform="translate(-231 44.41)"/><path class="cls-1" d="M510.84,30.35A14.08,14.08,0,0,1,516.31,29,12,12,0,0,1,523,30c.17,2.15,0,4.32,0,6.48-2.11.18-4.2-.44-6.31-.15-1.17.3-2.51,1.14-2.55,2.49-.22,4,0,8,0,12a2.86,2.86,0,0,0,2.68,2.86c2.06.12,4.12-.11,6.18-.11-.16,1.92.43,3.86,0,5.77a2.47,2.47,0,0,1-2.28,1.4c-3.56.31-7.4.27-10.57-1.59-2.33-1.46-3.25-4.38-3.25-7,0-5.24-.2-10.48,0-15.72a7.57,7.57,0,0,1,3.94-6" transform="translate(-231 44.41)"/><path class="cls-1" d="M642.24,29.33c3.06-.55,6.35-.8,9.32.34,1.83.76,3.67,2,4.23,4.06.75,2.51.35,5.16.4,7.74,0,6.26.22,12.53-.16,18.79-2.66.27-5.3-.48-8-.26-1.45.1-2.77,1-4.24.81a7.44,7.44,0,0,1-6-5.24,15.52,15.52,0,0,1,.05-8.65,9.94,9.94,0,0,1,2.67-4.51C642.86,40.16,646,39,649,37.9c0-.79,0-1.6,0-2.4-3.28-1.08-6.61.32-9.87.71,0-1.85-.46-3.8.29-5.56.54-1,1.81-1.14,2.82-1.32m3.52,24.3c.94.74,2.2.12,3.24-.1,0-3,0-5.9,0-8.85-3.58,1-5.45,5.88-3.23,9" transform="translate(-231 44.41)"/><path class="cls-1" d="M692.18,29.1a11,11,0,0,1,8.19,1.64A8.61,8.61,0,0,1,703.61,36c.71,3,.44,6.13.38,9.19-.12,2.9.38,5.84-.36,8.68s-2.53,5.54-5.4,6.34a13.69,13.69,0,0,1-7.51.13,8.25,8.25,0,0,1-5.12-3.87A13.39,13.39,0,0,1,684.27,50c0-3.29,0-6.58,0-9.87,0-2.57.25-5.29,1.71-7.48a8.68,8.68,0,0,1,6.22-3.55m.78,6.35a2,2,0,0,0-1.44,2c0,5.08,0,10.16,0,15.23.36,2.49,5,2.59,5.23,0,.22-5.24.23-10.49,0-15.73-.25-1.7-2.44-2-3.79-1.5" transform="translate(-231 44.41)"/><path class="cls-1" d="M455.31,29.74c2.16,0,4.31,0,6.46,0,.38,4.79,0,9.6.2,14.39,2.62-4.48,3.45-9.76,6-14.28a61.86,61.86,0,0,1,6.67-.11q.3,15.24,0,30.49c-2.22,0-4.43,0-6.65-.11-.19-4.09,0-8.18,0-12.27a3.66,3.66,0,0,0-.59-1.78c-1.75,4.43-3.13,9-5.16,13.34-.15.24-.22.66-.58.65a50,50,0,0,1-6.36.16q-.31-15.24,0-30.48" transform="translate(-231 44.41)"/><path class="cls-1" d="M479.51,29.85c2.06,0,4.15-.4,6.19.07,1.63,2.75,2.57,5.83,3.8,8.76.37,1,.87,1.84,1.2,2.8l.7.27c1.78-4,3.22-8.06,5.24-11.9a27.71,27.71,0,0,1,6,.1c.4,10,.2,20,0,30-2.1.65-4.3.23-6.45.32-.4-4.64,0-9.3-.21-13.95-1.7,2.08-2,5-4,6.85-.62.65-1.65.2-2.23-.27-1.7-1.82-1.84-4.57-3.6-6.35-.22,4.53,0,9.08-.22,13.62-2.14.1-4.29.12-6.44.11-.4-10.13-.42-20.26,0-30.38" transform="translate(-231 44.41)"/><path class="cls-1" d="M526.86,30.06c2.24-.64,4.58-.23,6.85-.1,0,4.13,0,8.25,0,12.37a4.38,4.38,0,0,0,2.66-1.93c1.23-2.74-.18-5.94,1.16-8.65a3.38,3.38,0,0,1,2-1.63A10.33,10.33,0,0,1,545.2,30a4.76,4.76,0,0,1,.19,4.3,2.89,2.89,0,0,1-1.8,1.3c-.17,2.94.14,6.16-1.6,8.72,1.09,1,2.62,1.94,2.79,3.57a121.91,121.91,0,0,1,0,12.39c-2.22,0-4.44,0-6.66,0-.41-4.08-.17-8.18-.22-12.27a35.92,35.92,0,0,0-4-.77c-.39,4.22,0,8.47-.2,12.7a13.18,13.18,0,0,1-6.83,0c-.24-9.94-.21-19.9,0-29.85" transform="translate(-231 44.41)"/><path class="cls-1" d="M550.25,30.08c2-.68,4.17-.26,6.24-.33.39,4.82,0,9.66.2,14.48,2.42-4.52,3.61-9.57,5.85-14.17,2.24-.63,4.56-.24,6.84-.21q0,15.13,0,30.27c-2.22.1-4.44.11-6.66.11-.4-4.83,0-9.67-.2-14.51-2.41,4.56-3.43,9.71-5.83,14.28a27.61,27.61,0,0,1-6.86.12c.19-9.34,0-18.67.19-28,.07-.68-.26-1.48.22-2.05" transform="translate(-231 44.41)"/><path class="cls-1" d="M574,29.74h6.46c.38,4.86,0,9.75.19,14.62,2.33-4.54,3.55-9.54,5.79-14.11.16-.28.54-.3.84-.39a24.7,24.7,0,0,1,5.89,0c.15,10.08.19,20.16.18,30.24-2.22.1-4.43.11-6.66.11-.39-4.86,0-9.75-.39-14.61-2.23,4.65-3.43,9.72-5.64,14.38a16.12,16.12,0,0,1-6.67-.12c-.18-10.05-.39-20.1,0-30.14" transform="translate(-231 44.41)"/><path class="cls-1" d="M660.9,29.84c4.53,0,9.08-.34,13.61.12,2.45.47,4.15,2.76,4.71,5.08a8.17,8.17,0,0,1-2.41,8.09c1.2,1.44,2.87,2.62,3.44,4.49a10.62,10.62,0,0,1-.87,8.61,7.16,7.16,0,0,1-5,3.72c-4.47.52-9,.17-13.44.16-.19-10.09,0-20.18,0-30.27m7,5.57v5.66c1.15-.12,2.45-.07,3.39-.86s.94-2.28.55-3.37c-.85-1.3-2.58-1.24-3.94-1.43m0,11.68v7.23c1.37-.16,2.83,0,4.1-.59.53-.23.72-.82.94-1.3a4.47,4.47,0,0,0-.87-4.6c-1.21-.85-2.78-.65-4.17-.74" transform="translate(-231 44.41)"/><path class="cls-1" d="M711.87,29.74c5.52,0,11,0,16.55,0,.36,8.07,0,16.15.18,24.22.8.28,1.61.54,2.4.87v11.5a28.26,28.26,0,0,1-6.63-.2c-.2-1.9-.2-3.8-.21-5.7H712.88c0,2,0,3.94,0,5.9a30.24,30.24,0,0,1-6.24-.1c-.2-3.79,0-7.57,0-11.35a10.4,10.4,0,0,0,2.17-1.24,4.07,4.07,0,0,0,1-2.33c1.51-7.1,1.55-14.39,2.11-21.59m6.45,6.47c-.59,5.94-.8,11.95-2.21,17.78,1.61,0,3.22.11,4.84.12.2-6,0-12,0-18-.88,0-1.75.08-2.62.13" transform="translate(-231 44.41)"/><path class="cls-1" d="M391,70.86a12,12,0,0,1,7.85-.21c2.67,4.19,4.48,8.84,6.74,13.26.06.2.38.73.53.23,2.48-4.43,4.32-9.21,7.06-13.51,2.11-.75,4.4-.45,6.58-.26,1.12.36.92,1.84,1,2.8-.18,11.85.2,23.72-.19,35.58-2.56,0-5.17.33-7.66-.44-.21-7,0-14.07-.21-21.1-2,3.49-2.8,7.61-5,11-1.06.86-3,.94-3.73-.4-1.85-3.55-3.07-7.38-4.71-11-.77,2.43-.26,5-.38,7.48-.27,4.76.4,9.54-.24,14.28-2.51.64-5.1.22-7.65.09,0-12.59-.21-25.18,0-37.77" transform="translate(-231 44.41)"/><path class="cls-1" d="M428.68,79.69a10,10,0,0,1,5.48-2.1,12.24,12.24,0,0,1,8.15,1.91c2.36,2.07,3.31,5.31,3.47,8.37a46.73,46.73,0,0,1-.34,7.84H433c0,1.8-.59,4,.77,5.43,1.65,1.83,4.38,1.92,6.64,1.51,1.62-.14,3.16-.89,4.8-.76a27.61,27.61,0,0,1,.29,4.64,2,2,0,0,1-1.53,2,22.28,22.28,0,0,1-12.64-.22,8.89,8.89,0,0,1-5.53-6.23,12.26,12.26,0,0,1-.28-3.31V87.05a9.74,9.74,0,0,1,3.2-7.36m4.39,5.71a15.45,15.45,0,0,0-.33,4c1.88,0,3.77,0,5.64-.11a9.68,9.68,0,0,0-.5-4.28c-.82-2-4.29-1.61-4.81.43" transform="translate(-231 44.41)"/><path class="cls-1" d="M472.86,78.1c3.28-.53,6.69-1.06,9.94-.17A8.44,8.44,0,0,1,487,80.4a6.35,6.35,0,0,1,1.34,4v24.36c-2.57,0-5.24.43-7.68-.54-2.07.91-4.44,1.58-6.66.87a8.17,8.17,0,0,1-4.83-6,15.34,15.34,0,0,1,.85-9,12.78,12.78,0,0,1,6.55-6,30.8,30.8,0,0,0,3.91-1.7,1.36,1.36,0,0,0,0-2.27,5.29,5.29,0,0,0-2.35-.54c-2.57,0-5,1-7.55,1.21,0-1.78-.36-3.63.3-5.34a2.47,2.47,0,0,1,1.92-1.4m3.84,22.54c.21.71.51,1.55,1.29,1.81a6.06,6.06,0,0,0,3.12-.28c0-3,0-5.91-.21-8.85a6.24,6.24,0,0,0-4.2,7.32" transform="translate(-231 44.41)"/><path class="cls-1" d="M551.71,77.68a12.2,12.2,0,0,1,8.75,1.82,9.59,9.59,0,0,1,3.22,5.92c.48,3,.1,6.07.07,9.11,0,2.71.23,5.47-.41,8.14a8.39,8.39,0,0,1-4.35,5.7,13.55,13.55,0,0,1-7.71.82c-4.32-.38-7.61-4.57-7.69-8.78V86.52c0-4.41,3.6-8.67,8.12-8.84m-.65,7.56a4.47,4.47,0,0,0-.18,2.09c.08,5.09-.37,10.22.35,15.28a8.33,8.33,0,0,0,3.47.32,1.89,1.89,0,0,0,1.62-1.72c.33-5.16,0-10.32.15-15.48-.54-2.37-4.34-2.51-5.41-.49" transform="translate(-231 44.41)"/><path class="cls-1" d="M575.86,79.25c1.85-1,3.91-2,6.08-1.69A5.38,5.38,0,0,1,585.83,80a10,10,0,0,1,1.7,5.77c0,4.52,0,9.05,0,13.58a14.66,14.66,0,0,1-.95,6.26,6.47,6.47,0,0,1-4.44,3.72c-2.36.48-4.67-.5-6.91-1.12,0,2.84,0,5.68-.2,8.51-.72.16-1.44.36-2.15.5h-1.56c-1.06-.17-2.1-.38-3.14-.61-.22-12.69-.18-25.38,0-38.06,2.56-.1,5.4-.77,7.7.73m.53,5.51c-.58.14-.57.8-.66,1.26-.84,4.85-.11,9.76-.29,14.64-.19,2.44,4.11,2.82,4.6.55.25-4.8.21-9.61.06-14.41,0-.59,0-1.27-.48-1.69a3.22,3.22,0,0,0-3.23-.35" transform="translate(-231 44.41)"/><path class="cls-1" d="M639.53,79.13c2.61-1.93,6-1.64,9.07-1.57a9,9,0,0,1,6.64,2.56,5.54,5.54,0,0,1,1.62,4c0,8.25.4,16.51,0,24.75a29.87,29.87,0,0,1-7.67-.55,8.29,8.29,0,0,1-7.8.13,6.7,6.7,0,0,1-3.15-3.82,13.18,13.18,0,0,1,2.51-13.71c2.54-2.25,5.84-3.27,8.87-4.62,0-.8.17-2-.78-2.35-3.19-.71-6.39.41-9.51,1a26.92,26.92,0,0,1,.21-5.82M646,102c.9,1,3.06,1.08,3.6-.34a75,75,0,0,0,0-8.21C645.88,94,644,98.89,646,102" transform="translate(-231 44.41)"/><path class="cls-1" d="M693.81,77.65a12.27,12.27,0,0,1,8.35,1.71,8.92,8.92,0,0,1,3.22,5.56c.66,3.42.26,6.93.44,10.39,0,2.81.14,5.71-.82,8.4a7.86,7.86,0,0,1-3.08,4.14,12.63,12.63,0,0,1-7.2,1.57,10.09,10.09,0,0,1-7.88-4.34c-1.24-2-1.14-4.51-1.29-6.81-.17-3.73.09-7.47-.07-11.2s2.12-7.59,5.7-8.89a12.27,12.27,0,0,1,2.63-.53m.52,6.39a2.06,2.06,0,0,0-1.4,1.43c-.15,5.32-.27,10.66,0,16,.71,2.25,4.67,2.25,5.38,0,0-4.88,0-9.77,0-14.64a3.89,3.89,0,0,0-.34-2,3.78,3.78,0,0,0-3.71-.75" transform="translate(-231 44.41)"/><path class="cls-1" d="M447.66,78.59a62.7,62.7,0,0,1,8.67-.24c3.62.09,7.26-.26,10.86.24-.18,1.93-.17,3.88-.2,5.83a33.27,33.27,0,0,1-5.83.3c-.4,8,.2,16.1-.4,24.14q-3.43-.17-6.85,0c-.41-8-.21-16-.21-24-1.95-.11-3.9-.12-5.84-.33a53.05,53.05,0,0,1-.2-5.91" transform="translate(-231 44.41)"/><path class="cls-1" d="M496.63,78.37c5.77-.12,11.55,0,17.31,0,.25,10.13.21,20.26,0,30.39-2.28,0-4.57,0-6.85.11-.4-7.93-.2-15.87-.2-23.81-1.08-.09-2.15-.13-3.23-.21-.32,4-.51,8.06-.77,12.1-.21,2.55-.17,5.2-1.11,7.62a7,7,0,0,1-3.17,3.74c-2.31,1.28-5.08,1.27-7.64.9a51.58,51.58,0,0,0,.2-5.42,5.79,5.79,0,0,0,3.95-1.94,4.62,4.62,0,0,0,.61-2.5c.61-7,.13-14,.88-21" transform="translate(-231 44.41)"/><path class="cls-1" d="M522,78.37c5.77-.11,11.55,0,17.32,0,.21,10.16.4,20.33,0,30.49-2.28-.11-4.57-.11-6.85-.11q-.32-11.85,0-23.7c-1.14-.09-2.28-.13-3.42-.21-.28,3.58-.37,7.18-.53,10.76a33.37,33.37,0,0,1-.88,7.72,7.78,7.78,0,0,1-3.29,4.85,11.66,11.66,0,0,1-7.8,1c0-1.82-.05-3.66,0-5.5,1.3-.37,2.93-.41,3.77-1.64,1.17-2,1-4.47,1-6.73.18-5.65.2-11.32.59-17" transform="translate(-231 44.41)"/><path class="cls-1" d="M590.55,78.37h7.25c1,4.67,2,9.34,3,14,.16.61.27,1.46,1,1.59,1.45-5.16,1.45-10.66,3.43-15.7,2.3.1,4.61,0,6.91.14A49,49,0,0,1,611,84.66c-2,8.77-3.77,17.6-5.74,26.38a7.85,7.85,0,0,1-7.62,6,50.85,50.85,0,0,1-6.28-.55c0-2.12,0-4.24.19-6.36,1.41.14,2.88.64,4.28.18.64-.24,1.43-.79,1.15-1.58-2-10.13-4.83-20.11-6.43-30.33" transform="translate(-231 44.41)"/><path class="cls-1" d="M626.81,79.13c1.73-1.09,3.88-.86,5.83-.77a1.3,1.3,0,0,1,1.28,1,4.37,4.37,0,0,1,.13,3,4.11,4.11,0,0,1-2.19,2.11c-.16,2.84.14,6-1.8,8.38,1.22,1.12,3,2,3.2,3.87,0,4-.19,8,0,12a50.26,50.26,0,0,1-7,.11c-.19-3.76.18-7.53-.18-11.27a1.75,1.75,0,0,0-1.4-1.38,16.08,16.08,0,0,0-2.86-.24c-.19,4.26,0,8.52,0,12.78a53.15,53.15,0,0,1-7.25.11V78.49c2.28,0,4.59-.44,6.84.08.62,4.1,0,8.26.41,12.38,1-.36,2.11-.72,2.57-1.74,1-2.1.39-4.48.65-6.7a4.35,4.35,0,0,1,1.81-3.38" transform="translate(-231 44.41)"/><path class="cls-1" d="M661.7,78.48c3.71-.18,7.44-.21,11.16-.1,1.44.08,3-.08,4.28.65a7.67,7.67,0,0,1,2.52,10.83,25.71,25.71,0,0,1-1.63,2c3.66,2.08,4.9,6.89,3.72,10.75-.8,2.89-3.12,5.52-6.19,6-4.47.59-9,.07-13.46.3-.6-10.12,0-20.26-.4-30.38m7.45,5.58v5.63a16.58,16.58,0,0,0,3.3-.62,3.59,3.59,0,0,0,.31-4c-.89-1-2.42-.69-3.61-1m0,11.65c0,2.38,0,4.76,0,7.14,1.37-.12,3,.19,4.14-.69a4.25,4.25,0,0,0-.15-5.77c-1.12-.89-2.65-.67-4-.68" transform="translate(-231 44.41)"/><path class="cls-1" d="M710.06,78.37c4.58,0,9.17-.26,13.74.15,3.46.49,5.51,4.21,5.42,7.47,0,2.38-1.59,4.26-3,6a11.56,11.56,0,0,1,4.8,7.51v.28a20.32,20.32,0,0,0-.73,2.29,10,10,0,0,1-4.58,5.85,7.71,7.71,0,0,1-3.5.8c-4,.29-8.08,0-12.12.06q-.33-15.19,0-30.38m7.26,5.68v5.52c1.18-.17,2.67.11,3.55-.9a4.12,4.12,0,0,0,.1-3.86,10.87,10.87,0,0,0-3.65-.76m0,11.55v7.24c1.35-.09,2.86.15,4.06-.6a4.19,4.19,0,0,0,0-5.85c-1.19-.83-2.72-.67-4.09-.79" transform="translate(-231 44.41)"/><path class="cls-1" d="M376.3,4.62A15.28,15.28,0,0,1,360.73,20,15.41,15.41,0,0,1,345.07,4.62a15.37,15.37,0,0,1,15.66-15.19A15.23,15.23,0,0,1,376.3,4.62M349,4.62a11.77,11.77,0,0,0,11.85,12.14c6.67,0,11.58-5.38,11.58-12S367.49-7.52,360.73-7.52A11.81,11.81,0,0,0,349,4.62m9.35,8H354.8V-2.61a30.62,30.62,0,0,1,5.84-.46c2.87,0,4.17.46,5.28,1.11a4.22,4.22,0,0,1,1.48,3.33c0,1.67-1.3,3-3.15,3.53v.18c1.48.56,2.32,1.67,2.78,3.71a11.48,11.48,0,0,0,1.11,3.79h-3.8a12.92,12.92,0,0,1-1.2-3.7c-.28-1.67-1.21-2.41-3.15-2.41h-1.67ZM358.41,4h1.67c1.95,0,3.52-.65,3.52-2.22,0-1.39-1-2.32-3.24-2.32a8,8,0,0,0-1.95.19Z" transform="translate(-231 44.41)"/></g></g></svg>