<svg xmlns="http://www.w3.org/2000/svg" width="9" height="13" viewBox="0 0 9 13">
  <metadata><?xpacket begin="﻿" id="W5M0MpCehiHzreSzNTczkc9d"?>
<x:xmpmeta xmlns:x="adobe:ns:meta/" x:xmptk="Adobe XMP Core 5.6-c138 79.159824, 2016/09/14-01:09:01        ">
   <rdf:RDF xmlns:rdf="http://www.w3.org/1999/02/22-rdf-syntax-ns#">
      <rdf:Description rdf:about=""/>
   </rdf:RDF>
</x:xmpmeta>
<?xpacket end="w"?></metadata>
<defs>
    <style>
      .cls-1 {
        fill: #b2e1e9;
        fill-rule: evenodd;
      }
    </style>
  </defs>
  <path id="Forma_1" data-name="Forma 1" class="cls-1" d="M374.5,13a4.655,4.655,0,0,0-4.5,4.786,4.9,4.9,0,0,0,.394,1.954,30.347,30.347,0,0,0,3.916,6.168,0.241,0.241,0,0,0,.38,0,30.318,30.318,0,0,0,3.916-6.167A4.9,4.9,0,0,0,379,17.786,4.655,4.655,0,0,0,374.5,13Zm0,7.272a2.491,2.491,0,1,1,2.337-2.486A2.418,2.418,0,0,1,374.5,20.272Z" transform="translate(-370 -13)"/>
</svg>
