<?xml version="1.0" encoding="UTF-8"?>
<!-- Generator: Adobe Illustrator 24.0.2, SVG Export Plug-In . SVG Version: 6.00 Build 0)  -->
<svg version="1.1" id="Слой_1" xmlns="http://www.w3.org/2000/svg" xmlns:xlink="http://www.w3.org/1999/xlink" x="0px" y="0px" viewBox="0 0 48.3 48.3" style="enable-background:new 0 0 48.3 48.3;" xml:space="preserve">
<style type="text/css">
	.st0{fill:none;stroke:#3D6684;stroke-width:1.5;stroke-miterlimit:10;}
	.st1{clip-path:url(#SVGID_2_);}
	.st2{fill:none;stroke:#3D6684;stroke-miterlimit:10;}
</style>
<g id="Слой_2_1_">
	<g id="Слой_1-2">
		<path class="st0" d="M10.1,0.7h28.1c5.2,0,9.4,4.2,9.4,9.4v28.1c0,5.2-4.2,9.4-9.4,9.4l0,0H10.1c-5.2,0-9.4-4.2-9.4-9.4l0,0V10.1    C0.8,4.9,4.9,0.7,10.1,0.7z"/>
	</g>
</g>
<g>
	<defs>
		<rect id="SVGID_1_" x="7.5" y="14.5" width="33.3" height="19.7"/>
	</defs>
	<clipPath id="SVGID_2_">
		<use xlink:href="#SVGID_1_" style="overflow:visible;"/>
	</clipPath>
	<g class="st1">
		<line class="st2" x1="-15" y1="11.9" x2="9.9" y2="36.8"/>
		<line class="st2" x1="-8.4" y1="11.9" x2="16.6" y2="36.8"/>
		<line class="st2" x1="-1.7" y1="11.9" x2="23.2" y2="36.8"/>
		<line class="st2" x1="5" y1="11.9" x2="30" y2="36.8"/>
		<line class="st2" x1="11.6" y1="11.9" x2="36.6" y2="36.8"/>
		<line class="st2" x1="18.2" y1="11.9" x2="43.2" y2="36.8"/>
		<line class="st2" x1="25" y1="11.9" x2="49.9" y2="36.8"/>
		<line class="st2" x1="31.6" y1="11.9" x2="56.5" y2="36.8"/>
		<line class="st2" x1="38.3" y1="11.9" x2="63.3" y2="36.8"/>
		<line class="st2" x1="63.3" y1="11.9" x2="38.4" y2="36.8"/>
		<line class="st2" x1="56.7" y1="11.9" x2="31.7" y2="36.8"/>
		<line class="st2" x1="50" y1="11.9" x2="25.1" y2="36.8"/>
		<line class="st2" x1="43.3" y1="11.9" x2="18.3" y2="36.8"/>
		<line class="st2" x1="36.7" y1="11.9" x2="11.7" y2="36.8"/>
		<line class="st2" x1="30.1" y1="11.9" x2="5.1" y2="36.8"/>
		<line class="st2" x1="23.3" y1="11.9" x2="-1.6" y2="36.8"/>
		<line class="st2" x1="16.7" y1="11.9" x2="-8.2" y2="36.8"/>
		<line class="st2" x1="10" y1="11.9" x2="-15" y2="36.8"/>
	</g>
</g>
</svg>