<svg xmlns="http://www.w3.org/2000/svg" viewBox="0 0 48.32 48.32"><defs><style>.cls-1,.cls-2{fill:none;stroke:#3d6684;stroke-miterlimit:10;}.cls-1{stroke-width:1.5px;}</style></defs><title>внутренний экран</title><g id="Слой_2" data-name="Слой 2"><g id="Слой_1-2" data-name="Слой 1"><path class="cls-1" d="M10.12.75H38.21a9.37,9.37,0,0,1,9.37,9.37v28.1a9.36,9.36,0,0,1-9.36,9.36H10.11A9.36,9.36,0,0,1,.75,38.21V10.12A9.37,9.37,0,0,1,10.12.75Z"/><line class="cls-2" x1="6.37" y1="33.49" x2="41.95" y2="33.49"/><path class="cls-2" d="M6.37,26.51a3.56,3.56,0,0,0,7.12,0V18.39"/><path class="cls-2" d="M20.6,26.51V18.39a3.56,3.56,0,1,0-7.11,0v8.12"/><path class="cls-2" d="M27.72,18.39v8.12a3.56,3.56,0,0,1-7.12,0V18.39"/><path class="cls-2" d="M34.83,26.51V18.39a3.56,3.56,0,1,0-7.11,0v8.12"/><path class="cls-2" d="M34.83,18.39v8.12a3.56,3.56,0,0,0,7.12,0"/></g></g></svg>