<svg xmlns="http://www.w3.org/2000/svg" viewBox="0 0 48.32 48.32"><defs><style>.cls-1,.cls-2,.cls-3,.cls-4{fill:none;stroke:#3d6684;stroke-miterlimit:10;}.cls-1{stroke-width:1.5px;}.cls-3,.cls-4{stroke-width:0.75px;}.cls-4{stroke-dasharray:2.04 2.04;}.cls-5{fill:#3d6684;}</style></defs><title>рулетка</title><g id="Слой_2" data-name="Слой 2"><g id="Слой_1-2" data-name="Слой 1"><path class="cls-1" d="M10.12.75H38.21a9.37,9.37,0,0,1,9.37,9.37v28.1a9.36,9.36,0,0,1-9.36,9.36H10.12A9.37,9.37,0,0,1,.75,38.21V10.12A9.37,9.37,0,0,1,10.12.75Z"/><line class="cls-2" x1="8.55" y1="9.44" x2="8.55" y2="17.21"/><line class="cls-2" x1="10.52" y1="9.44" x2="10.52" y2="13.32"/><line class="cls-2" x1="12.48" y1="9.44" x2="12.48" y2="14.51"/><line class="cls-2" x1="14.44" y1="9.44" x2="14.44" y2="13.32"/><line class="cls-2" x1="16.4" y1="9.44" x2="16.4" y2="14.51"/><line class="cls-2" x1="18.36" y1="9.44" x2="18.36" y2="13.32"/><line class="cls-2" x1="20.33" y1="9.44" x2="20.33" y2="14.51"/><line class="cls-2" x1="29.96" y1="9.44" x2="29.96" y2="13.32"/><line class="cls-2" x1="31.92" y1="9.44" x2="31.92" y2="14.51"/><line class="cls-2" x1="33.88" y1="9.44" x2="33.88" y2="13.32"/><line class="cls-2" x1="35.85" y1="9.44" x2="35.85" y2="14.51"/><line class="cls-2" x1="37.81" y1="9.44" x2="37.81" y2="13.32"/><line class="cls-2" x1="39.77" y1="9.44" x2="39.77" y2="14.51"/><line class="cls-2" x1="22.29" y1="9.44" x2="22.29" y2="13.32"/><line class="cls-2" x1="24.25" y1="9.44" x2="24.25" y2="14.51"/><line class="cls-2" x1="26.21" y1="9.44" x2="26.21" y2="13.32"/><line class="cls-2" x1="28.17" y1="9.44" x2="28.17" y2="17.21"/><line class="cls-3" x1="8.55" y1="38.88" x2="8.55" y2="32.67"/><line class="cls-3" x1="10.12" y1="38.88" x2="10.12" y2="35.78"/><line class="cls-3" x1="11.69" y1="38.88" x2="11.69" y2="35.78"/><line class="cls-3" x1="13.26" y1="38.88" x2="13.26" y2="35.78"/><line class="cls-3" x1="14.83" y1="38.88" x2="14.83" y2="35.78"/><line class="cls-3" x1="16.4" y1="38.88" x2="16.4" y2="34.2"/><line class="cls-3" x1="17.97" y1="38.88" x2="17.97" y2="35.78"/><line class="cls-3" x1="19.54" y1="38.88" x2="19.54" y2="35.78"/><line class="cls-3" x1="21.11" y1="38.88" x2="21.11" y2="35.78"/><line class="cls-3" x1="22.68" y1="38.88" x2="22.68" y2="35.78"/><line class="cls-3" x1="24.25" y1="38.88" x2="24.25" y2="32.67"/><line class="cls-3" x1="25.64" y1="38.88" x2="25.64" y2="35.78"/><line class="cls-3" x1="27.21" y1="38.88" x2="27.21" y2="35.78"/><line class="cls-3" x1="28.78" y1="38.88" x2="28.78" y2="35.78"/><line class="cls-3" x1="30.35" y1="38.88" x2="30.35" y2="35.78"/><line class="cls-3" x1="31.92" y1="38.88" x2="31.92" y2="34.2"/><line class="cls-3" x1="33.49" y1="38.88" x2="33.49" y2="35.78"/><line class="cls-3" x1="35.06" y1="38.88" x2="35.06" y2="35.78"/><line class="cls-3" x1="36.63" y1="38.88" x2="36.63" y2="35.78"/><line class="cls-3" x1="38.2" y1="38.88" x2="38.2" y2="35.78"/><line class="cls-3" x1="39.77" y1="38.88" x2="39.77" y2="32.67"/><line class="cls-3" x1="9.89" y1="24.94" x2="10.89" y2="24.94"/><line class="cls-4" x1="12.93" y1="24.94" x2="36.41" y2="24.94"/><line class="cls-3" x1="37.43" y1="24.94" x2="38.43" y2="24.94"/><path class="cls-5" d="M10,26.35a1.41,1.41,0,1,1,1.41-1.41A1.41,1.41,0,0,1,10,26.35Z"/><path class="cls-5" d="M38.36,26.35A1.41,1.41,0,1,0,37,24.94,1.41,1.41,0,0,0,38.36,26.35Z"/></g></g></svg>