<?xml version="1.0" encoding="UTF-8"?>
<svg id="_Слой_1" data-name="Слой 1" xmlns="http://www.w3.org/2000/svg" viewBox="10 35 255 70">
  <defs>
    <style>
      .cls-1, .cls-2 {
        fill: #00528d;
      }

      .cls-2 {
        font-family: TrebuchetMS-Bold, 'Trebuchet MS';
        font-size: 20px;
        font-weight: 700;
        stroke: #00528d;
        stroke-miterlimit: 10;
        stroke-width: 1.3px;
      }

      .cls-3 {
        letter-spacing: .075em;
      }
    </style>
  </defs>
  <g>
    <path class="cls-1" d="m66.7013287433,60.8555969167c-3.7092272821,0-6.727294201-3.018066919-6.727294201-6.7279341643,0-3.7092272821,3.018066919-6.727294201,6.727294201-6.727294201,3.7098672454,0,6.7279341643,3.018066919,6.7279341643,6.727294201,0,3.7098672454-3.018066919,6.7279341643-6.7279341643,6.7279341643Zm0-12.1445835287c-2.9867087173,0-5.4166493643,2.429940647-5.4166493643,5.4166493643,0,2.9873486806,2.429940647,5.4172893276,5.4166493643,5.4172893276,2.9873486806,0,5.4172893276-2.429940647,5.4172893276-5.4172893276,0-2.9867087173-2.429940647-5.4166493643-5.4172893276-5.4166493643Z"/>
    <path class="cls-1" d="m64.0806790331,50.642422625h3.5338773381c1.1749726173,0,1.918609971.8165931698,1.918609971,1.8078963202,0,.7711557755-.3020626772,1.349682598-1.0367405447,1.6434257523v.0185589357c.7065194823.1926289531.9087478848.8626705273.9548252424,1.5327121016.0268784586.412776328.0089594862,1.193531553.2751842186,1.5512710372h-1.4411973498c-.1651105312-.412776328-.156151045-1.0463399942-.2291068611-1.5698299729-.1011142013-.6886005099-.3673389337-.9913031504-1.093057315-.9913031504h-1.4411973498v2.5611331233h-1.4411973498v-6.553864147Zm1.4411973498,2.9649499651h1.5794294224c.6514826386,0,.9906631871-.2758241819.9906631871-.9362663067,0-.6335636662-.3391805486-.9087478848-.9906631871-.9087478848h-1.5794294224v1.8450141916Z"/>
  </g>
  <path class="cls-1" d="m45.4683443548,31.5384734607h.367672441c.5781165354.1124787402,1.1235779527.5732787402,1.128415748,1.1985637795-.0072566929,1.0062614173-.2479370079,2.0028472441-.5805354331,2.9498456693-.587792126,1.6896-1.7113700788,3.1373102362-3.0199937008,4.3334551181-1.629127559,1.4271496063-3.766223622,2.2919055118-5.9396031496,2.3088377953-4.1326866142.0943370079-8.2036913386-.8103307087-12.3267023622-.9179716535-1.9822866142-.0689385827-3.8968440945.5829543307-5.6916661417,1.3630488189-.4100031496.1620661417-.7933984252.3918614173-1.2167055118.5176440945-.5478803149.1015937008-1.1320440945-.1947212598-1.4126362205-.6688251968-.253984252-.4995023622-.1826267716-1.1356724409.1451338583-1.5855874016.6023055118-.8514519685,1.1816314961-1.7198362205,1.8286866142-2.5398425197,1.5118110236-1.9145574803,3.3344503937-3.6634204724,5.5791874016-4.6805669291,1.9907527559-.8901543307,4.247584252-.855080315,6.3580724409-.4910362205,2.0475968504.3096188976,4.0480251969.9953763779,6.1355338583.988119685,2.6728818898-.1874645669,5.3252031496-.9252283465,7.6485543307-2.2737637795.3217133858-.1862551181.6228661417-.4305637795.9965858268-.5019212598Zm-9.8557984252,5.4183307087c-1.3666771653.0810330709-2.7744755905.2213291339-4.0189984252.8333102362-.6760818898.3374362205-1.3134614173.7619527559-1.8552944882,1.2880629921,2.838576378.2600314961,5.6856188976.7752566929,8.5423370079.4995023622,2.2846488189-.3567874016,4.2826582677-1.9798677165,5.2211905512-4.0758425197-2.4890456693,1.0183559055-5.1945826772,1.6061480315-7.8892346457,1.4549669291Z"/>
  <path class="cls-1" d="m8.7627821501,48.0196325159c.1064314961-.6797102362.8139590551-1.0764094488,1.4585952756-1.0546393701,5.0373543307-.0108850394,10.0759181102-.0072566929,15.1132724409-.0024188976.6373795276-.0471685039,1.1707464567.5442519685,1.1586519685,1.162280315.0084661417,5.0748472441-.0012094488,10.1496944882.0036283465,15.2257511811.0157228346.3579968504.0205606299.7365543307.1777889764,1.0679433071.2382614173.3628346457.5865826772.6337511811.8744314961.9566740157,3.8460472441,4.1677606299,7.7126551181,8.3185889764,11.559911811,12.4863496063.6083527559-.0411212598,1.2179149606-.0507968504,1.8274771654-.0495874016.0979653543-4.5801826772.087080315-9.162784252.0967559055-13.7429669291.0278173228-1.2275905512,1.8468283465-1.5904251969,2.5724976378-.7365543307,4.401184252,4.7978834646,8.7273826772,9.663496063,13.1515464567,14.4408188976.4777322835.5684409449,1.2844346457.2322141732,1.9169763779.2757543307.0858708661-4.6563779528-.0024188976-9.3151748031.0894992126-13.9715527559-.0072566929-.394280315.2092346457-.7752566929.5539275591-.9675590551.6313322835-.3640440945,1.522696063-.2769637795,2.023407874.2721259843,3.0393448819,3.1336818898,5.9867716535,6.3544440945,8.9922519685,9.5207811024,1.035288189,1.0981795276,2.1153259843,2.1576566929,3.0828850394,3.3175181102.9155527559,1.1804220472,1.3485354331,2.6898141732,1.342488189,4.173807874v14.8907338583c.0036283465,1.1913070866-.2781732284,2.391080315-.8647559055,3.432415748-.8429858268,1.5311622047-2.3693102362,2.651111811-4.073423622,3.0272503937-.9844913386.2418897638-2.0028472441.1729511811-3.0066897638.1814173228-16.8101291338-.0012094488-33.6202582677-.0471685039-50.4291779528-.0024188976-.847823622-.0024188976-1.7016944882.039911811-2.5410519685-.1076409449-1.1828409449-.1862551181-2.3354456693-.6797102362-3.2098771654-1.509392126-1.2336377953-1.1453480315-1.7790992126-2.8434141732-1.8710173228-4.4882645669v-47.7986267717Zm3.3876661417,2.2858582677c-.0024188976,15.0721511811-.0012094488,30.145511811-.0012094488,45.2188724409.0084661417.9312755905.2164913386,2.0306645669,1.0715716535,2.5591937008,1.0159370079.641007874,2.264088189.4789417323,3.4070173228.4982929134,17.1330519685.0024188976,34.266103937-.0471685039,51.3991559055.0024188976.741392126.0290267717,1.496088189-.1620661417,2.1044409449-.5938393701.861127559-.5442519685,1.2288-1.6146141732,1.2396850394-2.5918488189.0012094488-5.0397732283,0-10.0795464567.0012094488-15.119319685.0072566929-.741392126-.220119685-1.4839937008-.6518929134-2.0875086614-1.5505133858-1.6001007874-3.0780472441-3.2231811024-4.5826015748-4.8668220472-1.3170897638-1.4755275591-2.7260976378-2.8639748031-4.0843086614-4.3008-.0012094488,3.0284598425.0012094488,6.056919685-.0012094488,9.0853795276.0036283465.6131905512-.1777889764,1.2239622047-.5043401575,1.7440251969-.6083527559,1.0050519685-1.7851464567,1.5940535433-2.9510551181,1.562607874-1.4610141732-.0641007874-3.0115275591-.4753133858-4.0504440945-1.5674456693-1.4041700787-1.4997165354-2.7998740157-3.005480315-4.2100913386-4.5003590551-1.9520503937-2.0935559055-3.9875527559-4.1084976378-5.9226708661-6.217776378-.1475527559,2.5047685039-.0749858268,5.0143748032-.093127559,7.5215622047-.0205606299.6869669291.0713574803,1.3932850394-.126992126,2.0645291339-.2926866142,1.0473826772-1.1235779528,1.9290708661-2.1576566929,2.2725543307-.5442519685.1910929134-1.1296251969.1741606299-1.6980661418.2104440945-.6083527559.0120944882-1.2227527559.1173165354-1.8274771654.0060472441-.7014803149-.1209448819-1.3630488189-.4716850394-1.8419905512-.9990047244-3.7686425197-4.1363149606-7.6098519685-8.2049007874-11.3772850394-12.3424251968-.4716850394-.4184692913-.8901543307-.894992126-1.2590362205-1.4077984252-.6639874016-.8381480315-.881688189-1.9460031496-.9167622047-2.9921763779-.0024188976-4.3866708661-.0012094488-8.7721322835-.0012094488-13.1588031496-3.6549543307-.0012094488-7.3099086614.0012094488-10.9636535433,0Z"/>
  <text class="cls-2" transform="translate(82.2265916907 74.4429850578)"><tspan class="cls-3" x="0" y="0">Русский Завод</tspan><tspan x="160.9790039062" y="0"> </tspan><tspan x="0" y="23.0004882812">Металлорукавов</tspan></text>
</svg>
