<svg xmlns="http://www.w3.org/2000/svg" xmlns:xlink="http://www.w3.org/1999/xlink" viewBox="0 0 500 161.6"><defs><style>.cls-1{fill:none;}.cls-2{clip-path:url(#clip-path);}.cls-3{fill:#0f5189;}</style><clipPath id="clip-path" transform="translate(0 0)"><rect class="cls-1" width="500" height="161.6"/></clipPath></defs><title>Ресурс 2</title><g id="Слой_2" data-name="Слой 2"><g id="Слой_1-2" data-name="Слой 1"><g class="cls-2"><path class="cls-3" d="M80.93,0h.81a2.9,2.9,0,0,1,2.49,2.65A20.14,20.14,0,0,1,83,9.15a23.83,23.83,0,0,1-6.66,9.55,20.37,20.37,0,0,1-13.1,5.1C54.08,24,45.11,22,36,21.77c-4.37-.15-8.58,1.29-12.54,3-.91.35-1.76.86-2.69,1.14a3.09,3.09,0,0,1-3.11-1.48A3.43,3.43,0,0,1,18,21c1.33-1.88,2.6-3.79,4-5.6C25.35,11.13,29.37,7.27,34.32,5c4.39-2,9.37-1.89,14-1.09s8.93,2.2,13.53,2.18a39.08,39.08,0,0,0,16.86-5A7.6,7.6,0,0,1,80.93,0M59.2,12a23,23,0,0,0-8.86,1.84,16.11,16.11,0,0,0-4.09,2.84c6.26.57,12.53,1.71,18.83,1.1a15.56,15.56,0,0,0,11.51-9A40.42,40.42,0,0,1,59.2,12" transform="translate(0 0)"/><path class="cls-3" d="M0,36.34A3,3,0,0,1,3.21,34q16.67,0,33.33,0a2.51,2.51,0,0,1,2.55,2.56c0,11.19,0,22.38,0,33.57a6.29,6.29,0,0,0,.39,2.36,21.35,21.35,0,0,0,1.93,2.11c8.48,9.18,17,18.34,25.49,27.53,1.34-.09,2.68-.11,4-.11.21-10.1.19-20.2.21-30.3.06-2.71,4.07-3.51,5.67-1.63,9.71,10.58,19.24,21.31,29,31.84,1.05,1.26,2.83.52,4.23.61.19-10.27,0-20.54.2-30.8a2.41,2.41,0,0,1,1.22-2.14,3.7,3.7,0,0,1,4.46.6c6.7,6.91,13.2,14,19.82,21,2.28,2.42,4.67,4.75,6.81,7.31a15.09,15.09,0,0,1,3,9.2v32.83a15.51,15.51,0,0,1-1.91,7.57,13.75,13.75,0,0,1-9,6.68,28.9,28.9,0,0,1-6.64.4c-37.06,0-74.12-.11-111.19,0a32.81,32.81,0,0,1-5.6-.23,13.4,13.4,0,0,1-7.08-3.33C1.41,149.1.2,145.36,0,141.73Zm7.47,5q0,49.84,0,99.7c0,2.06.47,4.48,2.36,5.64,2.24,1.42,5,1.06,7.51,1.1,37.77,0,75.55-.1,113.33,0a7.57,7.57,0,0,0,4.64-1.31A6.77,6.77,0,0,0,138,140.8V107.47a7.84,7.84,0,0,0-1.43-4.61q-5.13-5.28-10.11-10.72c-2.9-3.26-6-6.32-9-9.49v20a7.29,7.29,0,0,1-1.12,3.85,7.43,7.43,0,0,1-6.5,3.45c-3.23-.15-6.65-1-8.93-3.46-3.1-3.31-6.18-6.63-9.28-9.92-4.31-4.62-8.8-9.06-13.06-13.71-.33,5.52-.17,11-.21,16.58a17.76,17.76,0,0,1-.28,4.55,7.49,7.49,0,0,1-4.76,5,13.84,13.84,0,0,1-3.74.46,19.39,19.39,0,0,1-4,0,7.19,7.19,0,0,1-4.06-2.2c-8.31-9.12-16.78-18.09-25.09-27.22A18.56,18.56,0,0,1,33.67,77a11.13,11.13,0,0,1-2-6.6v-29H7.47" transform="translate(0 0)"/><path class="cls-3" d="M383.33,66.2a26,26,0,0,1,11.48-.44A7.65,7.65,0,0,1,400.08,69a12.22,12.22,0,0,1-1.41,15.37,8.45,8.45,0,0,1,3.57,5,19.61,19.61,0,0,1,.44,5.62,12.5,12.5,0,0,1-1.23,6,8.08,8.08,0,0,1-5.95,4,41.12,41.12,0,0,1-10.22,0c-.77-.16-1.89-.23-2.13-1.15a17.72,17.72,0,0,1,.18-6.65c2.91.46,6,1.29,8.91.19,2.43-1.8,2.71-5.57,1.09-8a3.55,3.55,0,0,0-2.11-1.63,33.45,33.45,0,0,0-5.48-.4,38.46,38.46,0,0,1-.19-6.7c2.3-.35,4.73-.06,7-.86,1.94-1.46,1.66-4.78-.24-6.15a4.19,4.19,0,0,0-2.4-.59c-2.19-.11-4.36.13-6.54.23,0-2.34,0-4.68,0-7" transform="translate(0 0)"/><path class="cls-3" d="M161.08,67.44c-.14-.38-.3-1.09.26-1.2a26.16,26.16,0,0,1,7.34.06c2,4.69,3.25,9.67,4.88,14.5a4.26,4.26,0,0,0,1.37,1.75c1.62-5.43,3-10.92,4.64-16.34a63.77,63.77,0,0,1,8.06-.12c-2.86,10.35-6.32,20.52-9.36,30.82A11.28,11.28,0,0,1,171,104.6a15.11,15.11,0,0,1-8.76.05c0-2.2,0-4.4,0-6.59,2.11,0,4.23.12,6.33,0a1.78,1.78,0,0,0,1.53-1.76c.25-1.86-.54-3.61-1.14-5.32Q165,79.21,161.08,67.44" transform="translate(0 0)"/><path class="cls-3" d="M201.54,66.2a30.49,30.49,0,0,1,7.27.14c0,2.86,0,5.72,0,8.59,2-1.21,4.53-2,6.82-1.15,2,.65,3.15,2.55,3.86,4.38.84,2.85.58,5.87.42,8.79,0,2.39,0,4.79.11,7.18a15.63,15.63,0,0,1-1,7.3,5.8,5.8,0,0,1-4.09,3.64c-2.21.4-4.34-.57-6.36-1.33v8.6a48.79,48.79,0,0,1-7.05.12c0-3.14,0-6.28-.22-9.41-1.7,1-3.42,2.61-5.56,2.15-3.17-.36-5.28-3.49-5.47-6.49-.24-5.52-.23-11-.24-16.56a11.2,11.2,0,0,1,1.38-5.9,6.08,6.08,0,0,1,5.11-2.89c1.69.2,3.15,1.19,4.8,1.59.21-2.91.19-5.83.2-8.75m-3,14.24c-1.35.29-1.31,2-1.38,3,.15,4.44,0,8.88.17,13.32-.1,2,3.27,2.34,3.79.53.31-5.32.21-10.66,0-16a2.17,2.17,0,0,0-2.6-.91m10.69.14c-.81,5.28-.2,10.64-.41,16-.31,2.2,3.62,2.7,3.83.5q.31-7.7,0-15.4a1.21,1.21,0,0,0-1.19-1.22,6.69,6.69,0,0,0-2.24.16" transform="translate(0 0)"/><path class="cls-3" d="M346.23,66.8a10.17,10.17,0,0,1,3.26-.12c.18.68.39,1.35.6,2a40.63,40.63,0,0,0,4.81,0,11.11,11.11,0,0,1,.81-2.07c1.14-.06,2.29,0,3.43,0a11.53,11.53,0,0,1-.16,3.52,2.36,2.36,0,0,1-2.15,1.24,83,83,0,0,1-9.06-.12c-1.22-.13-1.86-1.38-2-2.46-.09-.69-.34-1.71.49-2" transform="translate(0 0)"/><path class="cls-3" d="M279.84,74.76a14.08,14.08,0,0,1,5.47-1.31,11.94,11.94,0,0,1,6.73.91c.17,2.16,0,4.33,0,6.48-2.11.19-4.2-.43-6.31-.14-1.17.3-2.51,1.14-2.55,2.49-.22,4,0,8,0,12a2.86,2.86,0,0,0,2.68,2.86c2.06.11,4.12-.11,6.18-.11-.16,1.92.43,3.86,0,5.76a2.46,2.46,0,0,1-2.28,1.41c-3.56.3-7.4.27-10.57-1.6-2.33-1.45-3.25-4.38-3.25-7,0-5.24-.2-10.48,0-15.72a7.57,7.57,0,0,1,3.94-6" transform="translate(0 0)"/><path class="cls-3" d="M411.24,73.74c3.06-.55,6.35-.81,9.32.34,1.83.75,3.67,2,4.23,4.06.75,2.51.35,5.15.4,7.73,0,6.27.22,12.54-.16,18.8-2.66.26-5.3-.48-8-.26-1.45.1-2.77,1-4.24.8-2.87-.24-5.17-2.6-6-5.23a15.55,15.55,0,0,1,.05-8.66,10,10,0,0,1,2.67-4.5c2.36-2.25,5.47-3.42,8.49-4.51,0-.8,0-1.6,0-2.4-3.28-1.08-6.61.32-9.87.71,0-1.85-.46-3.8.29-5.56.54-1,1.81-1.14,2.82-1.32M414.76,98c.94.74,2.2.11,3.24-.1,0-3,0-5.9,0-8.85-3.58,1-5.45,5.88-3.23,9" transform="translate(0 0)"/><path class="cls-3" d="M461.18,73.51a11.09,11.09,0,0,1,8.19,1.63,8.66,8.66,0,0,1,3.24,5.28c.71,3,.44,6.13.38,9.19-.12,2.89.38,5.83-.36,8.67s-2.53,5.55-5.4,6.35a13.69,13.69,0,0,1-7.51.13,8.23,8.23,0,0,1-5.12-3.88,13.33,13.33,0,0,1-1.33-6.47c0-3.29,0-6.58,0-9.87,0-2.57.25-5.3,1.71-7.49a8.7,8.7,0,0,1,6.22-3.54m.78,6.35a2,2,0,0,0-1.44,2c0,5.08,0,10.16,0,15.23.36,2.49,5,2.59,5.23,0,.22-5.24.23-10.49,0-15.73-.25-1.7-2.44-2-3.79-1.5" transform="translate(0 0)"/><path class="cls-3" d="M224.31,74.14c2.16,0,4.31,0,6.46,0,.38,4.79,0,9.59.2,14.39,2.62-4.49,3.45-9.76,6-14.28a59.39,59.39,0,0,1,6.67-.11q.3,15.24,0,30.49c-2.22,0-4.43,0-6.65-.12-.19-4.08,0-8.17,0-12.26a3.66,3.66,0,0,0-.59-1.78c-1.75,4.42-3.13,9-5.16,13.34-.15.24-.22.66-.58.65a51.91,51.91,0,0,1-6.36.16q-.31-15.24,0-30.49" transform="translate(0 0)"/><path class="cls-3" d="M248.51,74.26c2.06,0,4.15-.4,6.19.07,1.63,2.75,2.57,5.83,3.8,8.76.37,1,.87,1.84,1.2,2.79l.7.28c1.78-4,3.22-8.06,5.24-11.9a27.71,27.71,0,0,1,6,.1c.4,10,.2,20,0,30-2.1.65-4.3.23-6.45.32-.4-4.64,0-9.3-.21-13.95-1.7,2.08-2,5-4,6.85-.62.65-1.65.2-2.23-.27-1.7-1.82-1.84-4.57-3.6-6.35-.22,4.53,0,9.08-.22,13.62-2.14.1-4.29.12-6.44.11-.4-10.13-.42-20.26,0-30.38" transform="translate(0 0)"/><path class="cls-3" d="M295.86,74.47c2.24-.64,4.58-.23,6.85-.1,0,4.13,0,8.25,0,12.37a4.38,4.38,0,0,0,2.66-1.93c1.23-2.74-.18-5.94,1.16-8.65a3.35,3.35,0,0,1,2-1.63,10.33,10.33,0,0,1,5.65-.17,4.76,4.76,0,0,1,.19,4.3,2.89,2.89,0,0,1-1.8,1.3c-.17,2.94.14,6.16-1.6,8.72,1.09,1,2.62,1.94,2.79,3.57a121.91,121.91,0,0,1,0,12.39c-2.22,0-4.44,0-6.66,0-.41-4.08-.17-8.18-.22-12.27a35.92,35.92,0,0,0-4-.77c-.39,4.22,0,8.47-.2,12.7a13.18,13.18,0,0,1-6.83,0c-.24-9.95-.21-19.9,0-29.85" transform="translate(0 0)"/><path class="cls-3" d="M319.25,74.49c2-.68,4.17-.26,6.24-.33.39,4.82,0,9.66.2,14.48,2.42-4.52,3.61-9.57,5.85-14.17,2.24-.64,4.56-.24,6.84-.21q0,15.13,0,30.26c-2.22.11-4.44.12-6.66.12-.4-4.83,0-9.67-.2-14.51-2.41,4.56-3.43,9.71-5.83,14.28a27.14,27.14,0,0,1-6.86.11c.19-9.33,0-18.66.19-28,.07-.68-.26-1.48.22-2.05" transform="translate(0 0)"/><path class="cls-3" d="M343,74.15c2.15,0,4.3,0,6.46,0,.38,4.86,0,9.74.19,14.61,2.33-4.53,3.55-9.53,5.79-14.1.16-.29.54-.3.84-.39a24.7,24.7,0,0,1,5.89,0c.15,10.08.19,20.16.18,30.24-2.22.1-4.43.11-6.66.11-.39-4.86,0-9.75-.39-14.61-2.23,4.65-3.43,9.72-5.64,14.38a16.12,16.12,0,0,1-6.67-.12c-.18-10.05-.39-20.1,0-30.14" transform="translate(0 0)"/><path class="cls-3" d="M429.9,74.25c4.53,0,9.08-.34,13.61.12,2.45.47,4.15,2.75,4.71,5.08a8.17,8.17,0,0,1-2.41,8.09c1.2,1.44,2.87,2.62,3.44,4.49a10.62,10.62,0,0,1-.87,8.61,7.19,7.19,0,0,1-5.05,3.72c-4.47.52-9,.17-13.44.16-.19-10.09,0-20.18,0-30.27m7,5.57v5.66c1.15-.12,2.45-.07,3.39-.86s.94-2.28.55-3.37C440,80,438.3,80,436.94,79.82m0,11.67v7.23c1.37-.15,2.83,0,4.1-.58.53-.23.72-.82.94-1.3a4.46,4.46,0,0,0-.87-4.6c-1.21-.85-2.78-.66-4.17-.75" transform="translate(0 0)"/><path class="cls-3" d="M480.87,74.15c5.52,0,11,0,16.55,0,.36,8.08,0,16.16.18,24.23.8.28,1.61.54,2.4.87v11.49a27.23,27.23,0,0,1-6.63-.2,56.84,56.84,0,0,1-.21-5.69H481.88c0,2,0,3.94,0,5.9a30.24,30.24,0,0,1-6.24-.1c-.2-3.79,0-7.57,0-11.35a10.87,10.87,0,0,0,2.17-1.24,4.1,4.1,0,0,0,.95-2.33c1.51-7.1,1.55-14.39,2.11-21.59m6.45,6.47c-.59,5.93-.8,11.95-2.21,17.78,1.61,0,3.22.11,4.84.12.2-6,0-12,0-18-.88,0-1.75.08-2.62.13" transform="translate(0 0)"/><path class="cls-3" d="M160,115.27a12,12,0,0,1,7.85-.21c2.67,4.19,4.48,8.84,6.74,13.26.06.2.38.73.53.23,2.48-4.43,4.32-9.21,7.06-13.51,2.11-.75,4.4-.45,6.58-.26,1.12.36.92,1.84,1.05,2.8-.18,11.85.2,23.72-.19,35.58-2.56,0-5.17.32-7.66-.45-.21-7,0-14.06-.21-21.09-2.05,3.49-2.8,7.61-5.05,11-1.06.86-3,.94-3.73-.4-1.85-3.55-3.07-7.38-4.71-11-.77,2.43-.26,5-.38,7.48-.27,4.76.4,9.54-.24,14.28-2.51.64-5.1.22-7.65.09,0-12.59-.21-25.18,0-37.77" transform="translate(0 0)"/><path class="cls-3" d="M197.68,124.09a10,10,0,0,1,5.48-2.09,12.29,12.29,0,0,1,8.15,1.9c2.36,2.08,3.31,5.32,3.47,8.38a46.73,46.73,0,0,1-.34,7.84H202c-.05,1.8-.59,3.95.77,5.43,1.65,1.83,4.38,1.92,6.64,1.51,1.62-.14,3.16-.89,4.8-.77a27.8,27.8,0,0,1,.29,4.65,2,2,0,0,1-1.53,2,22.28,22.28,0,0,1-12.64-.22,8.89,8.89,0,0,1-5.53-6.23,12.29,12.29,0,0,1-.28-3.31V131.46a9.78,9.78,0,0,1,3.2-7.37m4.39,5.71a15.56,15.56,0,0,0-.33,4c1.88,0,3.77,0,5.64-.11a9.68,9.68,0,0,0-.5-4.28c-.82-2-4.29-1.61-4.81.42" transform="translate(0 0)"/><path class="cls-3" d="M241.86,122.51c3.28-.53,6.69-1.06,9.94-.17a8.37,8.37,0,0,1,4.23,2.47,6.33,6.33,0,0,1,1.34,4v24.36c-2.57,0-5.24.43-7.68-.54-2.07.91-4.44,1.58-6.66.87a8.19,8.19,0,0,1-4.83-6,15.33,15.33,0,0,1,.85-9,12.78,12.78,0,0,1,6.55-5.95,32.3,32.3,0,0,0,3.91-1.7,1.37,1.37,0,0,0,0-2.28,5.42,5.42,0,0,0-2.35-.53c-2.57,0-5,1-7.55,1.2,0-1.77-.36-3.63.3-5.34a2.48,2.48,0,0,1,1.92-1.39m3.84,22.54a2.42,2.42,0,0,0,1.29,1.81,6.06,6.06,0,0,0,3.12-.28c0-3,0-5.91-.21-8.86a6.25,6.25,0,0,0-4.2,7.33" transform="translate(0 0)"/><path class="cls-3" d="M320.71,122.09a12.2,12.2,0,0,1,8.75,1.82,9.59,9.59,0,0,1,3.22,5.92c.48,3,.1,6.07.07,9.11-.05,2.71.23,5.47-.41,8.14a8.39,8.39,0,0,1-4.35,5.7,13.55,13.55,0,0,1-7.71.82c-4.32-.38-7.61-4.57-7.69-8.78V130.93c0-4.42,3.6-8.67,8.12-8.84m-.65,7.56a4.47,4.47,0,0,0-.18,2.09c.08,5.09-.37,10.21.35,15.28a8.49,8.49,0,0,0,3.47.32,1.91,1.91,0,0,0,1.62-1.72c.33-5.16,0-10.32.15-15.48-.54-2.37-4.34-2.51-5.41-.49" transform="translate(0 0)"/><path class="cls-3" d="M344.86,123.66c1.85-1,3.91-2,6.08-1.69a5.38,5.38,0,0,1,3.89,2.41,10,10,0,0,1,1.7,5.77c0,4.52,0,9,0,13.57a14.62,14.62,0,0,1-.95,6.26,6.48,6.48,0,0,1-4.44,3.73c-2.36.48-4.67-.5-6.91-1.12,0,2.84,0,5.68-.2,8.51-.72.16-1.44.36-2.15.5h-1.56c-1.06-.17-2.1-.38-3.14-.61-.22-12.69-.18-25.38,0-38.06,2.56-.11,5.4-.78,7.7.73m.53,5.51c-.58.13-.57.79-.66,1.26-.84,4.85-.11,9.76-.29,14.64-.19,2.44,4.11,2.81,4.6.55.25-4.8.21-9.61.06-14.42,0-.58,0-1.26-.48-1.68a3.22,3.22,0,0,0-3.23-.35" transform="translate(0 0)"/><path class="cls-3" d="M408.53,123.53c2.61-1.92,6-1.63,9.07-1.56a9,9,0,0,1,6.64,2.56,5.54,5.54,0,0,1,1.62,4c0,8.25.4,16.51,0,24.75a29.87,29.87,0,0,1-7.67-.55,8.29,8.29,0,0,1-7.8.13,6.7,6.7,0,0,1-3.15-3.82,13.18,13.18,0,0,1,2.51-13.71c2.54-2.25,5.84-3.27,8.87-4.62,0-.8.17-2-.78-2.35-3.19-.71-6.39.41-9.51,1a27,27,0,0,1,.21-5.82M415,146.39c.9,1,3.06,1.08,3.6-.34a75.12,75.12,0,0,0,0-8.22c-3.71.62-5.59,5.47-3.64,8.56" transform="translate(0 0)"/><path class="cls-3" d="M462.81,122.06a12.27,12.27,0,0,1,8.35,1.71,8.92,8.92,0,0,1,3.22,5.56c.66,3.42.26,6.93.44,10.39,0,2.81.14,5.71-.82,8.4a7.86,7.86,0,0,1-3.08,4.14,12.63,12.63,0,0,1-7.2,1.57,10.07,10.07,0,0,1-7.88-4.35c-1.24-2-1.14-4.5-1.29-6.8-.17-3.73.09-7.47-.07-11.2s2.12-7.59,5.7-8.89a12.27,12.27,0,0,1,2.63-.53m.52,6.39a2,2,0,0,0-1.4,1.43c-.15,5.32-.27,10.65,0,16,.71,2.25,4.67,2.25,5.38,0,0-4.88,0-9.77,0-14.65a3.86,3.86,0,0,0-.34-2,3.76,3.76,0,0,0-3.71-.75" transform="translate(0 0)"/><path class="cls-3" d="M216.66,123a61.18,61.18,0,0,1,8.67-.23c3.62.09,7.26-.26,10.86.23-.18,1.94-.17,3.89-.2,5.84a34.26,34.26,0,0,1-5.83.3c-.4,8,.2,16.1-.4,24.13q-3.44-.15-6.85,0c-.41-8-.21-16-.21-24-1.95-.11-3.9-.12-5.84-.33a53.15,53.15,0,0,1-.2-5.92" transform="translate(0 0)"/><path class="cls-3" d="M265.63,122.78c5.77-.12,11.55,0,17.31,0,.25,10.13.21,20.26,0,30.39-2.28,0-4.57,0-6.85.11-.4-7.93-.2-15.88-.2-23.81-1.08-.09-2.15-.13-3.23-.21-.32,4-.51,8.06-.77,12.1-.21,2.55-.17,5.19-1.11,7.62a7,7,0,0,1-3.17,3.74c-2.31,1.28-5.08,1.27-7.64.9a51.58,51.58,0,0,0,.2-5.42,5.79,5.79,0,0,0,3.95-1.94,4.62,4.62,0,0,0,.61-2.5c.61-7,.13-14,.88-21" transform="translate(0 0)"/><path class="cls-3" d="M291,122.78c5.77-.11,11.55,0,17.32,0,.21,10.16.4,20.33,0,30.49-2.28-.11-4.57-.11-6.85-.11q-.31-11.85,0-23.7c-1.14-.09-2.28-.13-3.42-.21-.28,3.58-.37,7.17-.53,10.76a33.37,33.37,0,0,1-.88,7.72,7.78,7.78,0,0,1-3.29,4.85,11.72,11.72,0,0,1-7.8,1c0-1.83-.05-3.66.05-5.5,1.3-.37,2.93-.42,3.77-1.64,1.17-2,1-4.47,1-6.73.18-5.65.2-11.32.59-17" transform="translate(0 0)"/><path class="cls-3" d="M359.55,122.78h7.25c1,4.67,2,9.34,3,14,.16.61.27,1.46,1,1.59,1.45-5.16,1.45-10.66,3.43-15.7,2.3.1,4.61,0,6.91.14a49,49,0,0,1-1.14,6.25c-2,8.77-3.77,17.6-5.74,26.37a7.85,7.85,0,0,1-7.62,6,50.85,50.85,0,0,1-6.28-.55c0-2.12,0-4.24.19-6.36,1.41.14,2.88.64,4.28.18.64-.24,1.43-.79,1.15-1.58-2-10.13-4.83-20.11-6.43-30.33" transform="translate(0 0)"/><path class="cls-3" d="M395.81,123.54c1.73-1.09,3.88-.86,5.83-.77a1.28,1.28,0,0,1,1.28,1,4.37,4.37,0,0,1,.13,3,4.11,4.11,0,0,1-2.19,2.11c-.16,2.84.14,6-1.8,8.38,1.22,1.12,3,2,3.2,3.87,0,4-.19,8,0,12a50.26,50.26,0,0,1-7,.11c-.19-3.76.18-7.53-.18-11.27a1.75,1.75,0,0,0-1.4-1.38,16.08,16.08,0,0,0-2.86-.24c-.19,4.25,0,8.52,0,12.78a53.15,53.15,0,0,1-7.25.11V122.9c2.28,0,4.59-.44,6.84.08.62,4.1,0,8.26.41,12.38,1-.36,2.11-.72,2.57-1.74,1-2.1.39-4.48.65-6.71a4.33,4.33,0,0,1,1.81-3.37" transform="translate(0 0)"/><path class="cls-3" d="M430.7,122.89c3.71-.18,7.44-.22,11.16-.1,1.44.08,3-.08,4.28.65a7.66,7.66,0,0,1,2.52,10.82,24.09,24.09,0,0,1-1.63,2c3.66,2.08,4.9,6.89,3.72,10.75-.8,2.88-3.12,5.52-6.19,6-4.47.58-9,.06-13.46.3-.6-10.12,0-20.26-.4-30.38m7.45,5.58v5.63a16.58,16.58,0,0,0,3.3-.62,3.59,3.59,0,0,0,.31-4c-.89-1-2.42-.7-3.61-1m0,11.65c0,2.38,0,4.75,0,7.13,1.37-.12,3,.2,4.14-.68a4.25,4.25,0,0,0-.15-5.77c-1.12-.9-2.65-.67-4-.68" transform="translate(0 0)"/><path class="cls-3" d="M479.06,122.78c4.58,0,9.17-.26,13.74.15,3.46.49,5.51,4.2,5.42,7.47,0,2.38-1.59,4.26-3,6a11.56,11.56,0,0,1,4.8,7.51v.28a20.32,20.32,0,0,0-.73,2.29,10,10,0,0,1-4.58,5.85,7.71,7.71,0,0,1-3.5.8c-4,.29-8.08,0-12.12.06q-.33-15.19,0-30.38m7.26,5.67V134c1.18-.17,2.67.1,3.55-.9a4.12,4.12,0,0,0,.1-3.86,11.13,11.13,0,0,0-3.65-.77m0,11.56v7.24c1.35-.1,2.86.15,4.06-.6a4.19,4.19,0,0,0,0-5.85c-1.19-.83-2.72-.67-4.09-.79" transform="translate(0 0)"/><path class="cls-3" d="M145.3,49a15.62,15.62,0,1,1-15.57-15.2A15.27,15.27,0,0,1,145.3,49M118,49a11.76,11.76,0,0,0,11.85,12.13c6.67,0,11.58-5.37,11.58-12s-4.91-12.23-11.67-12.23A11.8,11.8,0,0,0,118,49m9.35,8H123.8V41.8a30.62,30.62,0,0,1,5.84-.46c2.87,0,4.17.46,5.28,1.11a4.22,4.22,0,0,1,1.48,3.33c0,1.67-1.3,3-3.15,3.53v.18c1.48.55,2.32,1.67,2.78,3.7a11.48,11.48,0,0,0,1.11,3.8h-3.8a12.92,12.92,0,0,1-1.2-3.7c-.28-1.67-1.21-2.41-3.15-2.41h-1.67Zm.09-8.61h1.67c1.95,0,3.52-.65,3.52-2.22,0-1.4-1-2.32-3.24-2.32a8.69,8.69,0,0,0-2,.18Z" transform="translate(0 0)"/></g></g></g></svg>