<svg xmlns="http://www.w3.org/2000/svg" viewBox="0 0 48.32 48.32"><defs><style>.cls-1,.cls-2,.cls-3{fill:none;stroke:#3d6684;stroke-miterlimit:10;}.cls-1{stroke-width:1.5px;}.cls-2{stroke-dasharray:7;}</style></defs><title>наружная оболочка</title><g id="Слой_2" data-name="Слой 2"><g id="Слой_1-2" data-name="Слой 1"><path class="cls-1" d="M10.12.75H38.21a9.37,9.37,0,0,1,9.37,9.37v28.1a9.36,9.36,0,0,1-9.36,9.36H10.12A9.37,9.37,0,0,1,.75,38.21V10.12A9.37,9.37,0,0,1,10.12.75Z"/><line class="cls-2" x1="6.37" y1="16.79" x2="41.95" y2="16.79"/><line class="cls-3" x1="6.37" y1="12.88" x2="41.95" y2="12.88"/><path class="cls-3" d="M6.37,23.77a3.56,3.56,0,0,1,7.12,0v8.12"/><path class="cls-3" d="M20.6,23.77v8.12a3.56,3.56,0,1,1-7.11,0V23.77"/><path class="cls-3" d="M27.72,31.89V23.77a3.56,3.56,0,0,0-7.12,0v8.12"/><path class="cls-3" d="M34.83,23.77v8.12a3.56,3.56,0,1,1-7.11,0V23.77"/><path class="cls-3" d="M34.83,31.89V23.77a3.56,3.56,0,0,1,7.12,0"/></g></g></svg>