<svg xmlns="http://www.w3.org/2000/svg" viewBox="0 0 48.32 48.32"><defs><style>.cls-1,.cls-2{fill:none;stroke:#3d6684;}.cls-1{stroke-miterlimit:10;stroke-width:1.5px;}.cls-2{stroke-linecap:round;stroke-linejoin:round;stroke-width:0.61px;}.cls-3,.cls-4{fill:#3d6684;}.cls-4{font-size:8.81px;font-family:MyriadPro-Regular, Myriad Pro;}</style></defs><title>давление</title><g id="Слой_2" data-name="Слой 2"><g id="Слой_1-2" data-name="Слой 1"><path class="cls-1" d="M10.12.75H38.21a9.37,9.37,0,0,1,9.37,9.37v28.1a9.36,9.36,0,0,1-9.36,9.36H10.12A9.37,9.37,0,0,1,.75,38.21V10.12A9.37,9.37,0,0,1,10.12.75Z"/><circle class="cls-2" cx="24.16" cy="19.6" r="13.6" transform="translate(-5.66 10.74) rotate(-22.5)"/><path class="cls-2" d="M34.82,19.6A10.66,10.66,0,1,1,24.16,8.93,10.66,10.66,0,0,1,34.82,19.6Z"/><line class="cls-2" x1="24.16" y1="9.3" x2="24.16" y2="12.35"/><line class="cls-2" x1="24.16" y1="26.84" x2="24.16" y2="29.89"/><line class="cls-2" x1="31.44" y1="12.32" x2="29.29" y2="14.47"/><line class="cls-2" x1="19.04" y1="24.72" x2="16.88" y2="26.87"/><line class="cls-2" x1="16.88" y1="12.32" x2="19.04" y2="14.47"/><line class="cls-2" x1="29.28" y1="24.72" x2="31.44" y2="26.87"/><line class="cls-2" x1="13.87" y1="19.6" x2="16.92" y2="19.6"/><line class="cls-2" x1="31.41" y1="19.6" x2="34.46" y2="19.6"/><path class="cls-3" d="M25.06,20.27h0c.14-.14,2.79-4.52,2.79-4.52s-4.37,2.65-4.52,2.79h0a1.22,1.22,0,0,0,1.72,1.73h0Z"/><text class="cls-4" transform="translate(16.71 42.54)">BAR</text></g></g></svg>