<svg xmlns="http://www.w3.org/2000/svg" viewBox="0 0 37.06 34.43"><defs><style>.cls-1{fill:#3d6684;}</style></defs><title>print</title><g id="Слой_2" data-name="Слой 2"><g id="Слой_1-2" data-name="Слой 1"><path class="cls-1" d="M33.72,8.73H30.07V.84A.85.85,0,0,0,29.23,0H7.84A.84.84,0,0,0,7,.84V8.73H3.34A3.34,3.34,0,0,0,0,12.06v15.1A.85.85,0,0,0,.84,28H7v5.59a.84.84,0,0,0,.84.84H29.23a.85.85,0,0,0,.84-.84V28h6.15a.84.84,0,0,0,.84-.84V12.06A3.33,3.33,0,0,0,33.72,8.73Zm-25-7H28.39V8.73H24.72V5.06a.84.84,0,1,0-1.68,0V8.73H19.37V5.06a.84.84,0,0,0-1.68,0V8.73H14V5.06a.84.84,0,1,0-1.68,0V8.73H8.67ZM28.39,21H8.67v-1a1.66,1.66,0,0,1,1.66-1.66h16.4a1.66,1.66,0,0,1,1.66,1.66Zm0,11.73H8.67v-10H28.39Zm7-6.43H30.07V20.06a3.35,3.35,0,0,0-3.34-3.34H10.33A3.34,3.34,0,0,0,7,20.06v6.26H1.68V12.06A1.66,1.66,0,0,1,3.34,10.4H33.72a1.67,1.67,0,0,1,1.67,1.66Z"/><path class="cls-1" d="M32,12.73a.88.88,0,1,0,0,1.76.88.88,0,1,0,0-1.76Z"/><path class="cls-1" d="M28.63,12.73a.88.88,0,1,0,.88.88A.88.88,0,0,0,28.63,12.73Z"/><path class="cls-1" d="M25.23,29.38H11.83a.84.84,0,0,0,0,1.68h13.4a.84.84,0,0,0,0-1.68Z"/><path class="cls-1" d="M25.23,25.2h-6.7a.84.84,0,0,0,0,1.68h6.7a.84.84,0,0,0,0-1.68Z"/></g></g></svg>