<svg xmlns="http://www.w3.org/2000/svg" viewBox="0 0 48.32 48.32"><defs><style>.cls-1,.cls-2{fill:none;stroke:#3d6684;stroke-miterlimit:10;}.cls-1{stroke-width:1.5px;}.cls-2{stroke-width:0.74px;}</style></defs><title>изгиб гофры</title><g id="Слой_2" data-name="Слой 2"><g id="Слой_1-2" data-name="Слой 1"><path class="cls-1" d="M10.12.75H38.21a9.37,9.37,0,0,1,9.37,9.37v28.1a9.36,9.36,0,0,1-9.36,9.36H10.12A9.37,9.37,0,0,1,.75,38.21V10.12A9.37,9.37,0,0,1,10.12.75Z"/><path class="cls-2" d="M24,26.05a2.07,2.07,0,0,0-.63,4.08l4.67,1.35"/><path class="cls-2" d="M23.4,30.13l4.66,1.35c1.13.29,1.74,1.86.9,3.56a3.57,3.57,0,0,1-1.8,1.76,1.62,1.62,0,0,1-1.78-.2l-3.61-3.25"/><path class="cls-2" d="M25.38,36.6l-3.61-3.25a5.21,5.21,0,0,0-1.33-.8c-.38-.15-.64-.29-.76-.22s-.18.33-.28.74a5,5,0,0,0-.17,1.53l.4,4.84"/><path class="cls-2" d="M19.23,34.6l.4,4.84A1.64,1.64,0,0,1,18.7,41a3,3,0,0,1-1.14.4,3.51,3.51,0,0,1-1.33,0,4.55,4.55,0,0,1-.66-.17,5.27,5.27,0,0,1-.63-.31,3,3,0,0,1-.95-.81,1.63,1.63,0,0,1-.26-1.76"/><line class="cls-2" x1="13.73" y1="38.3" x2="15.68" y2="33.45"/><path class="cls-2" d="M15.53,33.73A3.7,3.7,0,0,0,16,32.24a1.33,1.33,0,0,0-.27-1.07,1.54,1.54,0,0,0-1.12-.4,2.83,2.83,0,0,0-1.54.38L8.93,33.67"/><path class="cls-2" d="M13.08,31.16,8.93,33.67a1.74,1.74,0,0,1-1.74,0,3.28,3.28,0,0,1-1.48-1.74c-.61-1.64.06-3.18,1.22-3.39l4.75-1"/><path class="cls-2" d="M6.93,28.52l4.75-1a2.25,2.25,0,0,0,1.85-2.14,2.25,2.25,0,0,0-2.11-1.88L6.58,23.1"/><path class="cls-2" d="M11.42,23.49,6.58,23.1c-1.17-.06-2-1.5-1.65-3.18A3.19,3.19,0,0,1,6.12,18a1.79,1.79,0,0,1,1.72-.25"/><line class="cls-2" x1="7.84" y1="17.78" x2="12.55" y2="19.12"/><path class="cls-2" d="M12.55,19.12a2.63,2.63,0,0,0,1.58.2,1.73,1.73,0,0,0,1.13-.64A2.27,2.27,0,0,0,14.77,16l-3.38-3.5"/><path class="cls-2" d="M14.77,16l-3.38-3.49A1.76,1.76,0,0,1,11,10.8,3.29,3.29,0,0,1,12.42,9a3.24,3.24,0,0,1,2.22-.56,1.72,1.72,0,0,1,1.4,1L18,13.88"/><path class="cls-2" d="M16,9.42,18,13.88a2.2,2.2,0,0,0,2.42,1.4,1.81,1.81,0,0,0,1.13-.86,2.33,2.33,0,0,0,.38-1.57L21.25,8"/><path class="cls-2" d="M21.9,12.85,21.25,8c-.17-1.17.95-2.29,2.54-2.34a2.92,2.92,0,0,1,2,.64,1.79,1.79,0,0,1,.7,1.54"/><line class="cls-2" x1="26.51" y1="7.87" x2="26.68" y2="12.78"/><path class="cls-2" d="M26.68,12.78A2.38,2.38,0,0,0,27,14.34a1.93,1.93,0,0,0,1.1.88,2.25,2.25,0,0,0,2.42-1.41L32.5,9.35"/><path class="cls-2" d="M30.56,13.8,32.5,9.35a1.77,1.77,0,0,1,1.41-1,3.22,3.22,0,0,1,2.21.56,3.29,3.29,0,0,1,1.41,1.83,1.77,1.77,0,0,1-.38,1.71l-3.38,3.49"/><path class="cls-2" d="M37.15,12.44l-3.38,3.49a2.62,2.62,0,0,0-.7,1.41,1.61,1.61,0,0,0,.2,1.26,1.68,1.68,0,0,0,1.12.63A2.58,2.58,0,0,0,36,19l4.42-2"/><path class="cls-2" d="M36,19l4.42-2c1.06-.53,2.56.38,3,2.07s-.39,3.13-1.56,3.23"/><line class="cls-2" x1="41.81" y1="22.32" x2="36.82" y2="23.43"/><path class="cls-2" d="M37,23.43a2.46,2.46,0,0,0-1.48.65,2,2,0,0,0-.64,1.31,2.27,2.27,0,0,0,1.91,2.21l4.8.76"/><path class="cls-2" d="M36.83,27.59l4.8.77c1.15.15,1.92,1.57,1.53,3.06a2.31,2.31,0,0,1-2.79,1.93l-4.6-1.56"/><path class="cls-2" d="M40.37,33.35l-4.6-1.56a2.22,2.22,0,0,0-1.7,4.09L38.43,38"/><path class="cls-2" d="M34.07,35.88,38.43,38A2.51,2.51,0,0,1,36,42.37l-4.13-2.56"/><line class="cls-2" x1="36.02" y1="42.37" x2="31.89" y2="39.81"/></g></g></svg>