<svg xmlns="http://www.w3.org/2000/svg" viewBox="0 0 38.53 33.63"><defs><style>.cls-1{fill:#3d6684;}</style></defs><title>save</title><g id="Слой_2" data-name="Слой 2"><g id="Слой_1-2" data-name="Слой 1"><path class="cls-1" d="M34.51,33.63H4a4.12,4.12,0,0,1-4-4.21V19.33a4.12,4.12,0,0,1,4-4.2H7.22a.84.84,0,0,1,0,1.68H4a2.47,2.47,0,0,0-2.4,2.52V29.42A2.47,2.47,0,0,0,4,31.94h30.5a2.47,2.47,0,0,0,2.41-2.52V19.33a2.47,2.47,0,0,0-2.41-2.52H31.3a.84.84,0,0,1,0-1.68h3.21a4.12,4.12,0,0,1,4,4.2V29.42A4.12,4.12,0,0,1,34.51,33.63ZM19.26,23.54a.78.78,0,0,1-.57-.25L9.87,14.05a.89.89,0,0,1-.18-.92.8.8,0,0,1,.74-.52h4.82V1.68A1.64,1.64,0,0,1,16.86,0h4.81a1.64,1.64,0,0,1,1.61,1.68V12.61h4.81a.78.78,0,0,1,.74.52.87.87,0,0,1-.17.92l-8.83,9.24A.77.77,0,0,1,19.26,23.54Zm-6.89-9.25,6.89,7.22,6.89-7.22H22.47a.82.82,0,0,1-.8-.84V1.68H16.86V13.45a.83.83,0,0,1-.81.84Z"/></g></g></svg>