<svg xmlns="http://www.w3.org/2000/svg" viewBox="0 0 46.73 46.73"><defs><style>.cls-1{fill:none;stroke:#3d6684;stroke-miterlimit:10;stroke-width:1.5px;}.cls-2,.cls-4{fill:#3d6684;}.cls-2,.cls-3{fill-rule:evenodd;}.cls-3{fill:#fff;}</style></defs><title>температура</title><g id="Слой_2" data-name="Слой 2"><g id="Слой_1-2" data-name="Слой 1"><path class="cls-1" d="M9.8.75H36.93a9,9,0,0,1,9,9V36.93a9,9,0,0,1-9,9H9.8a9,9,0,0,1-9-9V9.8A9,9,0,0,1,9.8.75Z"/><path class="cls-2" d="M26.8,31.06A5.73,5.73,0,1,1,18.48,33a5.63,5.63,0,0,1,1.73-1.94V8.52a3.24,3.24,0,0,1,3.25-3.25,3.31,3.31,0,0,1,2.37.85,3.58,3.58,0,0,1,1,2.4Zm1,2.34a4.86,4.86,0,0,0-1.64-1.76L26,31.51v-23a2.69,2.69,0,0,0-.71-1.8,2.48,2.48,0,0,0-1.79-.61A2.42,2.42,0,0,0,21,8.52v23l-.19.13a4.87,4.87,0,1,0,6.94,1.76"/><path class="cls-3" d="M20.62,19.9V8.52a2.84,2.84,0,0,1,2.84-2.83,2.74,2.74,0,0,1,2.92,2.83V19.9Z"/><path class="cls-2" d="M20.21,19.9V8.52a3.37,3.37,0,0,1,5.62-2.39,3.56,3.56,0,0,1,1,2.39v11.8H20.21ZM21,8.52v11H26v-11a2.69,2.69,0,0,0-.71-1.8,2.48,2.48,0,0,0-1.79-.61A2.42,2.42,0,0,0,21,8.52"/><path class="cls-2" d="M26.8,31.06A5.73,5.73,0,1,1,18.48,33a5.63,5.63,0,0,1,1.73-1.94V8.52a3.24,3.24,0,0,1,3.25-3.25,3.31,3.31,0,0,1,2.37.85,3.58,3.58,0,0,1,1,2.4Zm1,2.34a4.86,4.86,0,0,0-1.64-1.76L26,31.51v-23a2.69,2.69,0,0,0-.71-1.8,2.48,2.48,0,0,0-1.79-.61A2.42,2.42,0,0,0,21,8.52v23l-.19.13a4.87,4.87,0,1,0,6.94,1.76"/><path class="cls-2" d="M15.45,16.88a.41.41,0,0,1-.42-.41.42.42,0,0,1,.42-.42h2.64a.42.42,0,0,1,.42.42.41.41,0,0,1-.42.41Z"/><path class="cls-2" d="M15.45,13.45a.42.42,0,1,1,0-.84h2.64a.42.42,0,1,1,0,.84Z"/><path class="cls-2" d="M15.45,10a.42.42,0,0,1,0-.84h2.64a.42.42,0,1,1,0,.84Z"/><path class="cls-2" d="M15.45,6.57A.42.42,0,0,1,15,6.15a.42.42,0,0,1,.42-.42h2.64a.42.42,0,0,1,.42.42.42.42,0,0,1-.42.42Z"/><path class="cls-4" d="M13.66,27.14H6.48A.47.47,0,0,1,6,26.66a.48.48,0,0,1,.48-.48h7l6.59-6.58a.47.47,0,0,1,.67.67L14,27a.49.49,0,0,1-.34.14"/><path class="cls-4" d="M26.34,20.6a.51.51,0,0,1-.34-.14.5.5,0,0,1,0-.68l6.73-6.73a.47.47,0,0,1,.34-.13h7.18a.48.48,0,1,1,0,.95h-7l-6.59,6.59a.48.48,0,0,1-.34.14"/></g></g></svg>