<svg xmlns="http://www.w3.org/2000/svg" viewBox="0 0 48.32 48.32"><defs><style>.cls-1{fill:none;stroke:#3d6684;stroke-miterlimit:10;stroke-width:1.5px;}.cls-2{fill:#3d6684;}</style></defs><title>капли 2</title><g id="Слой_2" data-name="Слой 2"><g id="Слой_1-2" data-name="Слой 1"><path class="cls-1" d="M10.12.75H38.21a9.37,9.37,0,0,1,9.37,9.37v28.1a9.36,9.36,0,0,1-9.36,9.36H10.11A9.36,9.36,0,0,1,.75,38.21V10.12A9.37,9.37,0,0,1,10.12.75Z"/><path class="cls-2" d="M26.93,24.24c-.53.45-1,.86-1.39,1.17,0,0,0,.05-.06.06a.4.4,0,0,0,.06.55c.39.31.86.72,1.39,1.17,2.31,2,5.5,4.75,8.17,4.75a6.16,6.16,0,0,0,4.4-1.83,6.27,6.27,0,0,0,1.82-4.4,6.21,6.21,0,0,0-6.22-6.22C32.43,19.49,29.24,22.25,26.93,24.24Zm12-2.38a5.39,5.39,0,0,1,1.61,3.85,5.45,5.45,0,0,1-5.45,5.46c-2.38,0-5.46-2.65-7.67-4.57l-1.06-.89c.33-.27.68-.57,1-.89,2.22-1.91,5.28-4.56,7.67-4.56A5.47,5.47,0,0,1,38.94,21.86Zm-.36,3.82A3.33,3.33,0,0,1,35.22,29a.38.38,0,1,0,0,.76,4.15,4.15,0,0,0,2.92-1.21,4.08,4.08,0,0,0,1.19-2.91.38.38,0,0,0-.75,0Z"/><path class="cls-2" d="M10.81,16.41c-.38.33-.72.63-1,.86l0,0a.28.28,0,0,0,0,.4c.29.23.63.53,1,.86,1.69,1.46,4,3.47,6,3.47A4.54,4.54,0,0,0,20,20.71a4.55,4.55,0,0,0-3.22-7.77C14.84,12.94,12.5,15,10.81,16.41Zm8.79-1.74a4,4,0,0,1-2.81,6.81c-1.74,0-4-1.94-5.61-3.34l-.77-.65.76-.65c1.62-1.4,3.85-3.34,5.61-3.34A4,4,0,0,1,19.6,14.67Zm-.27,2.8a2.44,2.44,0,0,1-2.45,2.46.28.28,0,1,0,0,.55,3,3,0,0,0,3-3,.28.28,0,1,0-.55,0Z"/><path class="cls-2" d="M17,32.07c-.39.33-.73.63-1,.86,0,0,0,0,0,0a.27.27,0,0,0,0,.39l1,.86c1.68,1.46,4,3.47,6,3.47a4.55,4.55,0,0,0,0-9.1C21,28.6,18.66,30.62,17,32.07Zm8.78-1.74A4,4,0,0,1,23,37.14c-1.74,0-4-1.94-5.61-3.34l-.77-.65.76-.65c1.62-1.4,3.86-3.34,5.61-3.34A4,4,0,0,1,25.76,30.33Zm-.26,2.8A2.46,2.46,0,0,1,23,35.59a.28.28,0,1,0,0,.55,3,3,0,0,0,3-3,.28.28,0,0,0-.55,0Z"/><path class="cls-2" d="M26.91,13.16l-.74.63s0,0,0,0a.21.21,0,0,0,0,.29c.21.17.46.38.74.63,1.23,1.06,2.94,2.54,4.37,2.54a3.33,3.33,0,1,0,0-6.66C29.85,10.62,28.14,12.09,26.91,13.16Zm6.42-1.28a2.91,2.91,0,0,1-2,5c-1.27,0-2.92-1.41-4.1-2.44L26.61,14l.56-.48c1.18-1,2.82-2.44,4.1-2.44A2.93,2.93,0,0,1,33.33,11.88Zm-.19,2a1.79,1.79,0,0,1-1.8,1.8.2.2,0,0,0,0,.4,2.17,2.17,0,0,0,2.2-2.2.19.19,0,0,0-.2-.2A.2.2,0,0,0,33.14,13.93Z"/><path class="cls-2" d="M7.82,26.83l-.74.63s0,0,0,0a.2.2,0,0,0,0,.29l.74.63C9.05,29.47,10.76,31,12.19,31a3.28,3.28,0,0,0,2.35-1,3.32,3.32,0,0,0,1-2.35,3.35,3.35,0,0,0-3.33-3.33C10.76,24.29,9.05,25.77,7.82,26.83Zm6.42-1.27a2.86,2.86,0,0,1,.87,2.06,2.94,2.94,0,0,1-2.92,2.92c-1.27,0-2.92-1.42-4.1-2.45l-.57-.47.56-.48c1.18-1,2.82-2.44,4.1-2.44A2.89,2.89,0,0,1,14.24,25.56Zm-.19,2a1.78,1.78,0,0,1-1.8,1.8.2.2,0,0,0,0,.4,2.17,2.17,0,0,0,2.2-2.2.2.2,0,0,0-.4,0Z"/></g></g></svg>